<?xml version="1.0" encoding="UTF-8" standalone="no"?>
<!-- Created with Inkscape (http://www.inkscape.org/) -->

<svg
   xmlns:dc="http://purl.org/dc/elements/1.1/"
   xmlns:cc="http://creativecommons.org/ns#"
   xmlns:rdf="http://www.w3.org/1999/02/22-rdf-syntax-ns#"
   xmlns:svg="http://www.w3.org/2000/svg"
   xmlns="http://www.w3.org/2000/svg"
   xmlns:sodipodi="http://sodipodi.sourceforge.net/DTD/sodipodi-0.dtd"
   xmlns:inkscape="http://www.inkscape.org/namespaces/inkscape"
   width="400mm"
   height="300mm"
   viewBox="0 0 1417.3228 1062.9921"
   id="svg2"
   version="1.1"
   inkscape:version="0.91 r13725"
   sodipodi:docname="makibox-housing.svg">
  <defs
     id="defs4" />
  <sodipodi:namedview
     id="base"
     pagecolor="#ffffff"
     bordercolor="#666666"
     borderopacity="1.0"
     inkscape:pageopacity="0.0"
     inkscape:pageshadow="2"
     inkscape:zoom="0.57910536"
     inkscape:cx="421.65332"
     inkscape:cy="660.82709"
     inkscape:document-units="mm"
     inkscape:current-layer="layer5"
     showgrid="false"
     inkscape:snap-bbox="true"
     inkscape:object-nodes="true"
     inkscape:snap-center="true"
     inkscape:bbox-paths="true"
     inkscape:bbox-nodes="true"
     inkscape:window-width="1600"
     inkscape:window-height="850"
     inkscape:window-x="0"
     inkscape:window-y="0"
     inkscape:window-maximized="1">
    <inkscape:grid
       type="xygrid"
       id="grid4136" />
  </sodipodi:namedview>
  <metadata
     id="metadata7">
    <rdf:RDF>
      <cc:Work
         rdf:about="">
        <dc:format>image/svg+xml</dc:format>
        <dc:type
           rdf:resource="http://purl.org/dc/dcmitype/StillImage" />
        <dc:title />
      </cc:Work>
    </rdf:RDF>
  </metadata>
  <g
     inkscape:label="top"
     inkscape:groupmode="layer"
     id="layer1"
     transform="translate(0,10.629921)"
     style="display:none">
    <g
       id="g4326"
       transform="translate(-8.8582633,-8.8582073)">
      <path
         sodipodi:nodetypes="cccccccccccc"
         inkscape:connector-curvature="0"
         id="rect4138"
         d="m 825.58951,7.086554 -807.87304,0 0,995.669046 807.87304,0 0,-269.29014 -584.61773,0 -0.0547,0.002 c -19.56956,2.9e-4 -35.43389,-15.86404 -35.4336,-35.4336 l 0,-556.30078 c -2.9e-4,-19.56955 15.86405,-35.43388 35.4336,-35.43359 l 584.67241,0 z"
         style="opacity:1;fill:none;fill-opacity:1;fill-rule:nonzero;stroke:#000000;stroke-width:0.35433072;stroke-linecap:butt;stroke-linejoin:round;stroke-miterlimit:4;stroke-dasharray:none;stroke-dashoffset:29.05511856;stroke-opacity:1" />
      <path
         inkscape:connector-curvature="0"
         id="rect4157"
         d="m 212.59737,26.574482 a 3.5433071,3.5433071 0 0 0 -3.54297,3.54492 3.5433071,3.5433071 0 0 0 1.77148,3.06446 l 0,8.04492 a 3.5433071,3.5433071 0 0 0 -1.77148,3.0625 3.5433071,3.5433071 0 0 0 3.54297,3.54297 3.5433071,3.5433071 0 0 0 3.0664,-1.77149 l 15.13086,0 a 3.5433071,3.5433071 0 0 0 3.0625,1.77149 3.5433071,3.5433071 0 0 0 3.54492,-3.54297 3.5433071,3.5433071 0 0 0 -1.77148,-3.06445 l 0,-8.04493 a 3.5433071,3.5433071 0 0 0 1.77148,-3.0625 3.5433071,3.5433071 0 0 0 -3.54492,-3.54492 3.5433071,3.5433071 0 0 0 -3.06445,1.77149 l -15.13086,0 a 3.5433071,3.5433071 0 0 0 -3.06445,-1.77149 z"
         style="opacity:1;fill:none;fill-opacity:1;fill-rule:nonzero;stroke:#000000;stroke-width:0.35433072;stroke-linecap:butt;stroke-linejoin:round;stroke-miterlimit:4;stroke-dasharray:none;stroke-dashoffset:29.05511856;stroke-opacity:1" />
      <rect
         transform="matrix(0,1,-1,0,0,0)"
         rx="3.5433071"
         ry="3.5433071"
         y="-194.88116"
         x="428.73984"
         height="7.0866141"
         width="21.259842"
         id="rect4177"
         style="opacity:1;fill:none;fill-opacity:1;fill-rule:nonzero;stroke:#000000;stroke-width:0.35433072;stroke-linecap:butt;stroke-linejoin:round;stroke-miterlimit:4;stroke-dasharray:none;stroke-dashoffset:29.05511856;stroke-opacity:1" />
      <circle
         transform="matrix(0,1,-1,0,0,0)"
         r="35.439816"
         cy="-457.09265"
         cx="917.72296"
         id="path4179"
         style="opacity:1;fill:none;fill-opacity:1;fill-rule:nonzero;stroke:#000000;stroke-width:0.35433072;stroke-linecap:butt;stroke-linejoin:round;stroke-miterlimit:4;stroke-dasharray:none;stroke-dashoffset:29.05511856;stroke-opacity:1" />
      <path
         inkscape:connector-curvature="0"
         style="opacity:1;fill:none;fill-opacity:1;fill-rule:nonzero;stroke:#000000;stroke-width:0.35433072;stroke-linecap:butt;stroke-linejoin:round;stroke-miterlimit:4;stroke-dasharray:none;stroke-dashoffset:29.05511856;stroke-opacity:1"
         d="m 240.94409,758.26706 a 3.5433071,3.5433071 0 0 0 -3.54492,-3.54297 3.5433071,3.5433071 0 0 0 -3.06446,1.77148 l -8.04492,0 a 3.5433071,3.5433071 0 0 0 -3.0625,-1.77148 3.5433071,3.5433071 0 0 0 -3.54297,3.54297 3.5433071,3.5433071 0 0 0 1.77149,3.0664 l 0,15.13091 a 3.5433071,3.5433071 0 0 0 -1.77149,3.0625 3.5433071,3.5433071 0 0 0 3.54297,3.5449 3.5433071,3.5433071 0 0 0 3.06445,-1.7715 l 8.04493,0 a 3.5433071,3.5433071 0 0 0 3.0625,1.7715 3.5433071,3.5433071 0 0 0 3.54492,-3.5449 3.5433071,3.5433071 0 0 0 -1.77149,-3.0645 l 0,-15.13086 a 3.5433071,3.5433071 0 0 0 1.77149,-3.06445 z"
         id="path4181" />
      <path
         inkscape:connector-curvature="0"
         id="path4183"
         d="m 809.64488,24.80249 a 3.5433071,3.5433071 0 0 0 -3.54492,-3.542969 3.5433071,3.5433071 0 0 0 -3.06446,1.771485 l -8.04492,0 a 3.5433071,3.5433071 0 0 0 -3.0625,-1.771485 3.5433071,3.5433071 0 0 0 -3.54297,3.542969 3.5433071,3.5433071 0 0 0 1.77149,3.066406 l 0,15.13086 a 3.5433071,3.5433071 0 0 0 -1.77149,3.0625 3.5433071,3.5433071 0 0 0 3.54297,3.544922 3.5433071,3.5433071 0 0 0 3.06445,-1.771485 l 8.04493,0 a 3.5433071,3.5433071 0 0 0 3.0625,1.771485 3.5433071,3.5433071 0 0 0 3.54492,-3.544922 3.5433071,3.5433071 0 0 0 -1.77149,-3.064453 l 0,-15.13086 a 3.5433071,3.5433071 0 0 0 1.77149,-3.064453 z"
         style="opacity:1;fill:none;fill-opacity:1;fill-rule:nonzero;stroke:#000000;stroke-width:0.35433072;stroke-linecap:butt;stroke-linejoin:round;stroke-miterlimit:4;stroke-dasharray:none;stroke-dashoffset:29.05511856;stroke-opacity:1" />
      <path
         inkscape:connector-curvature="0"
         style="opacity:1;fill:none;fill-opacity:1;fill-rule:nonzero;stroke:#000000;stroke-width:0.35433072;stroke-linecap:butt;stroke-linejoin:round;stroke-miterlimit:4;stroke-dasharray:none;stroke-dashoffset:29.05511856;stroke-opacity:1"
         d="m 809.64495,767.12533 a 3.5433071,3.5433071 0 0 0 -3.54492,-3.54297 3.5433071,3.5433071 0 0 0 -3.06446,1.77148 l -8.04492,0 a 3.5433071,3.5433071 0 0 0 -3.0625,-1.77148 3.5433071,3.5433071 0 0 0 -3.54297,3.54297 3.5433071,3.5433071 0 0 0 1.77149,3.0664 l 0,15.13076 a 3.5433071,3.5433071 0 0 0 -1.77149,3.0625 3.5433071,3.5433071 0 0 0 3.54297,3.545 3.5433071,3.5433071 0 0 0 3.06445,-1.7715 l 8.04493,0 a 3.5433071,3.5433071 0 0 0 3.0625,1.7715 3.5433071,3.5433071 0 0 0 3.54492,-3.545 3.5433071,3.5433071 0 0 0 -1.77149,-3.0644 l 0,-15.13081 a 3.5433071,3.5433071 0 0 0 1.77149,-3.06445 z"
         id="path4185" />
      <circle
         transform="matrix(0,1,-1,0,0,0)"
         style="opacity:1;fill:none;fill-opacity:1;fill-rule:nonzero;stroke:#000000;stroke-width:0.35433072;stroke-linecap:butt;stroke-linejoin:round;stroke-miterlimit:4;stroke-dasharray:none;stroke-dashoffset:29.05511856;stroke-opacity:1"
         id="circle4187"
         cx="28.346136"
         cy="-38.975647"
         r="8.8582678" />
      <circle
         transform="matrix(0,1,-1,0,0,0)"
         r="8.8582678"
         cy="-807.87329"
         cx="981.49573"
         id="circle4189"
         style="opacity:1;fill:none;fill-opacity:1;fill-rule:nonzero;stroke:#000000;stroke-width:0.35433072;stroke-linecap:butt;stroke-linejoin:round;stroke-miterlimit:4;stroke-dasharray:none;stroke-dashoffset:29.05511856;stroke-opacity:1" />
      <rect
         transform="matrix(0,1,-1,0,0,0)"
         rx="8.8582697"
         ry="8.8582726"
         y="-152.36145"
         x="937.20441"
         height="106.2992"
         width="17.716539"
         id="rect4191"
         style="opacity:1;fill:none;fill-opacity:1;fill-rule:nonzero;stroke:#000000;stroke-width:0.35433072;stroke-linecap:butt;stroke-linejoin:round;stroke-miterlimit:4;stroke-dasharray:none;stroke-dashoffset:29.05511856;stroke-opacity:1" />
      <rect
         transform="matrix(0,1,-1,0,0,0)"
         style="opacity:1;fill:none;fill-opacity:1;fill-rule:nonzero;stroke:#000000;stroke-width:0.35433072;stroke-linecap:butt;stroke-linejoin:round;stroke-miterlimit:4;stroke-dasharray:none;stroke-dashoffset:29.05511856;stroke-opacity:1"
         id="rect4193"
         width="53.149605"
         height="106.2992"
         x="866.33826"
         y="-152.36145"
         ry="8.8582726"
         rx="8.8582697" />
      <circle
         transform="matrix(0,1,-1,0,0,0)"
         style="opacity:1;fill:none;fill-opacity:1;fill-rule:nonzero;stroke:#000000;stroke-width:0.35433072;stroke-linecap:butt;stroke-linejoin:round;stroke-miterlimit:4;stroke-dasharray:none;stroke-dashoffset:29.05511856;stroke-opacity:1"
         id="circle4201"
         cx="981.49573"
         cy="-38.973755"
         r="8.8582678" />
      <rect
         style="opacity:1;fill:none;fill-opacity:1;fill-rule:nonzero;stroke:#000000;stroke-width:0.35433072;stroke-linecap:butt;stroke-linejoin:round;stroke-miterlimit:4;stroke-dasharray:none;stroke-dashoffset:29.05511856;stroke-opacity:1"
         id="rect4205"
         width="21.259842"
         height="7.0866141"
         x="506.6922"
         y="829.13354"
         ry="3.5433071"
         rx="3.5433071" />
      <rect
         transform="matrix(0,1,-1,0,0,0)"
         style="opacity:1;fill:none;fill-opacity:1;fill-rule:nonzero;stroke:#000000;stroke-width:0.35433072;stroke-linecap:butt;stroke-linejoin:round;stroke-miterlimit:4;stroke-dasharray:none;stroke-dashoffset:29.05511856;stroke-opacity:1"
         id="rect4207"
         width="17.716539"
         height="106.2992"
         x="830.90521"
         y="-152.36145"
         ry="8.8582726"
         rx="8.8582697" />
      <rect
         transform="matrix(0,1,-1,0,0,0)"
         rx="8.8582697"
         ry="8.8582726"
         y="-152.36145"
         x="795.47186"
         height="106.2992"
         width="17.716539"
         id="rect4209"
         style="opacity:1;fill:none;fill-opacity:1;fill-rule:nonzero;stroke:#000000;stroke-width:0.35433072;stroke-linecap:butt;stroke-linejoin:round;stroke-miterlimit:4;stroke-dasharray:none;stroke-dashoffset:29.05511856;stroke-opacity:1" />
      <rect
         transform="matrix(0,1,-1,0,0,0)"
         style="opacity:1;fill:none;fill-opacity:1;fill-rule:nonzero;stroke:#000000;stroke-width:0.35433072;stroke-linecap:butt;stroke-linejoin:round;stroke-miterlimit:4;stroke-dasharray:none;stroke-dashoffset:29.05511856;stroke-opacity:1"
         id="rect4211"
         width="17.716539"
         height="106.2992"
         x="760.03851"
         y="-152.36145"
         ry="8.8582726"
         rx="8.8582697" />
      <rect
         transform="matrix(0,1,-1,0,0,0)"
         rx="8.8582697"
         ry="8.8582726"
         y="-152.36145"
         x="724.60516"
         height="106.2992"
         width="17.716539"
         id="rect4213"
         style="opacity:1;fill:none;fill-opacity:1;fill-rule:nonzero;stroke:#000000;stroke-width:0.35433072;stroke-linecap:butt;stroke-linejoin:round;stroke-miterlimit:4;stroke-dasharray:none;stroke-dashoffset:29.05511856;stroke-opacity:1" />
      <rect
         transform="matrix(0,1,-1,0,0,0)"
         style="opacity:1;fill:none;fill-opacity:1;fill-rule:nonzero;stroke:#000000;stroke-width:0.35433072;stroke-linecap:butt;stroke-linejoin:round;stroke-miterlimit:4;stroke-dasharray:none;stroke-dashoffset:29.05511856;stroke-opacity:1"
         id="rect4215"
         width="17.716539"
         height="106.2992"
         x="689.17181"
         y="-152.36145"
         ry="8.8582726"
         rx="8.8582697" />
      <circle
         r="21.259842"
         cy="657.28339"
         cx="79.72435"
         id="path4278"
         style="opacity:1;fill:none;fill-opacity:1;fill-rule:nonzero;stroke:#000000;stroke-width:0.35433072;stroke-linecap:butt;stroke-linejoin:round;stroke-miterlimit:4;stroke-dasharray:none;stroke-dashoffset:29.05511856;stroke-opacity:1" />
      <circle
         r="53.149605"
         cy="917.72296"
         cx="457.09265"
         id="path4282"
         style="opacity:1;fill:none;fill-opacity:1;fill-rule:nonzero;stroke:#000000;stroke-width:0.35433072;stroke-linecap:butt;stroke-linejoin:round;stroke-miterlimit:4;stroke-dasharray:none;stroke-dashoffset:29.05511856;stroke-opacity:1" />
    </g>
  </g>
  <g
     inkscape:groupmode="layer"
     id="layer2"
     inkscape:label="front"
     style="display:none">
    <g
       id="g4455">
      <path
         id="rect4138-2"
         transform="translate(-6.1035156e-5,0)"
         d="m 35.433594,35.433594 0,488.976566 3.542968,0 c 1.962993,0 3.542969,1.57997 3.542969,3.54296 l 0,14.17188 c 0,1.96299 -1.579976,3.54492 -3.542969,3.54492 l -3.542968,0 0,485.43168 772.439456,0 0,-269.2891 -573.98633,0 -0.0547,0.002 c -19.56956,2.9e-4 -35.43388,-15.86403 -35.43359,-35.43359 l 0,-556.30078 c -2.9e-4,-19.56955 15.86404,-35.43389 35.43359,-35.4336 l 574.04102,0 0,-99.212886 -772.439456,0 z"
         style="opacity:1;fill:none;fill-opacity:1;fill-rule:nonzero;stroke:#000000;stroke-width:0.35433072;stroke-linecap:butt;stroke-linejoin:round;stroke-miterlimit:4;stroke-dasharray:none;stroke-dashoffset:29.05511856;stroke-opacity:1"
         inkscape:connector-curvature="0" />
      <path
         inkscape:connector-curvature="0"
         style="opacity:1;fill:none;fill-opacity:1;fill-rule:nonzero;stroke:#000000;stroke-width:0.35433072;stroke-linecap:butt;stroke-linejoin:round;stroke-miterlimit:4;stroke-dasharray:none;stroke-dashoffset:29.05511856;stroke-opacity:1"
         d="m 69.094428,813.18922 a 3.5433071,3.5433071 0 0 0 3.54492,3.543 3.5433071,3.5433071 0 0 0 3.06446,-1.7715 l 8.04492,0 a 3.5433071,3.5433071 0 0 0 3.0625,1.7715 3.5433071,3.5433071 0 0 0 3.54297,-3.543 3.5433071,3.5433071 0 0 0 -1.77149,-3.0664 l 0,-15.1309 a 3.5433071,3.5433071 0 0 0 1.77149,-3.0625 3.5433071,3.5433071 0 0 0 -3.54297,-3.5449 3.5433071,3.5433071 0 0 0 -3.06445,1.7715 l -8.04493,0 a 3.5433071,3.5433071 0 0 0 -3.0625,-1.7715 3.5433071,3.5433071 0 0 0 -3.54492,3.5449 3.5433071,3.5433071 0 0 0 1.77149,3.0645 l 0,15.1309 a 3.5433071,3.5433071 0 0 0 -1.77149,3.0644 z"
         id="path4181-9" />
      <circle
         transform="matrix(0,1,-1,0,0,0)"
         style="opacity:1;fill:none;fill-opacity:1;fill-rule:nonzero;stroke:#000000;stroke-width:0.35433072;stroke-linecap:butt;stroke-linejoin:round;stroke-miterlimit:4;stroke-dasharray:none;stroke-dashoffset:29.05511856;stroke-opacity:1"
         id="circle4187-7"
         cx="81.496002"
         cy="-72.637733"
         r="8.8582678" />
      <circle
         transform="matrix(0,1,-1,0,0,0)"
         r="8.8582678"
         cy="-784.84247"
         cx="986.81097"
         id="circle4189-6"
         style="opacity:1;fill:none;fill-opacity:1;fill-rule:nonzero;stroke:#000000;stroke-width:0.35433072;stroke-linecap:butt;stroke-linejoin:round;stroke-miterlimit:4;stroke-dasharray:none;stroke-dashoffset:29.05511856;stroke-opacity:1" />
      <circle
         transform="matrix(0,1,-1,0,0,0)"
         style="opacity:1;fill:none;fill-opacity:1;fill-rule:nonzero;stroke:#000000;stroke-width:0.35433072;stroke-linecap:butt;stroke-linejoin:round;stroke-miterlimit:4;stroke-dasharray:none;stroke-dashoffset:29.05511856;stroke-opacity:1"
         id="circle4201-8"
         cx="986.81097"
         cy="-72.637733"
         r="8.8582678" />
      <rect
         style="opacity:1;fill:none;fill-opacity:1;fill-rule:nonzero;stroke:#000000;stroke-width:0.35433072;stroke-linecap:butt;stroke-linejoin:round;stroke-miterlimit:4;stroke-dasharray:none;stroke-dashoffset:29.05511856;stroke-opacity:1"
         id="rect4205-4"
         width="21.259842"
         height="7.0866141"
         x="419.88184"
         y="857.48022"
         ry="3.5433071"
         rx="3.5433071" />
      <circle
         r="8.8582678"
         cy="-706.88971"
         cx="62.007812"
         id="circle4450"
         style="opacity:1;fill:none;fill-opacity:1;fill-rule:nonzero;stroke:#000000;stroke-width:0.35433072;stroke-linecap:butt;stroke-linejoin:round;stroke-miterlimit:4;stroke-dasharray:none;stroke-dashoffset:29.05511856;stroke-opacity:1"
         transform="matrix(0,1,-1,0,0,0)" />
      <circle
         style="opacity:1;fill:none;fill-opacity:1;fill-rule:nonzero;stroke:#000000;stroke-width:0.35433072;stroke-linecap:butt;stroke-linejoin:round;stroke-miterlimit:4;stroke-dasharray:none;stroke-dashoffset:29.05511856;stroke-opacity:1"
         id="circle4453"
         cx="832.67712"
         cy="-705.11804"
         r="8.8582678"
         transform="matrix(0,1,-1,0,0,0)" />
    </g>
  </g>
  <g
     inkscape:groupmode="layer"
     id="layer3"
     inkscape:label="z-endstop"
     style="display:none">
    <path
       style="opacity:1;fill:none;fill-opacity:1;fill-rule:nonzero;stroke:#000000;stroke-width:0.35433072;stroke-linecap:butt;stroke-linejoin:round;stroke-miterlimit:4;stroke-dasharray:none;stroke-dashoffset:29.05511856;stroke-opacity:1"
       d="M 17.717582,8.8582678 C 12.825193,8.8576564 8.8586737,12.823302 8.8582067,17.715691 l 0,19.490235 148.2536833,0 0.56641,-0.566407 0,-13.962353 7.08593,0 0,-13.8188982 z"
       id="rect4466"
       inkscape:connector-curvature="0"
       sodipodi:nodetypes="ccccccccc" />
  </g>
  <g
     inkscape:groupmode="layer"
     id="layer4"
     inkscape:label="left"
     style="display:none">
    <g
       id="g4418">
      <rect
         y="26.574802"
         x="17.716475"
         height="768.89764"
         width="807.87402"
         id="rect4169"
         style="opacity:1;fill:none;fill-opacity:1;fill-rule:nonzero;stroke:#000000;stroke-width:0.35433072;stroke-linecap:butt;stroke-linejoin:round;stroke-miterlimit:4;stroke-dasharray:none;stroke-dashoffset:29.05511856;stroke-opacity:1" />
      <path
         inkscape:connector-curvature="0"
         id="rect4157-9"
         d="m 529.72401,205.51188 a 3.5433071,3.5433071 0 0 0 -3.54297,3.54492 3.5433071,3.5433071 0 0 0 1.77148,3.06446 l 0,8.04492 a 3.5433071,3.5433071 0 0 0 -1.77148,3.0625 3.5433071,3.5433071 0 0 0 3.54297,3.54297 3.5433071,3.5433071 0 0 0 3.0664,-1.77149 l 15.13086,0 a 3.5433071,3.5433071 0 0 0 3.0625,1.77149 3.5433071,3.5433071 0 0 0 3.54492,-3.54297 3.5433071,3.5433071 0 0 0 -1.77148,-3.06445 l 0,-8.04493 a 3.5433071,3.5433071 0 0 0 1.77148,-3.0625 3.5433071,3.5433071 0 0 0 -3.54492,-3.54492 3.5433071,3.5433071 0 0 0 -3.06445,1.77149 l -15.13086,0 a 3.5433071,3.5433071 0 0 0 -3.06445,-1.77149 z"
         style="opacity:1;fill:none;fill-opacity:1;fill-rule:nonzero;stroke:#000000;stroke-width:0.35433072;stroke-linecap:butt;stroke-linejoin:round;stroke-miterlimit:4;stroke-dasharray:none;stroke-dashoffset:29.05511856;stroke-opacity:1" />
      <rect
         transform="matrix(0,1,-1,0,0,0)"
         rx="3.5433071"
         ry="3.5433071"
         y="-384.44876"
         x="490.74805"
         height="7.0866141"
         width="21.259842"
         id="rect4177-7"
         style="opacity:1;fill:none;fill-opacity:1;fill-rule:nonzero;stroke:#000000;stroke-width:0.35433072;stroke-linecap:butt;stroke-linejoin:round;stroke-miterlimit:4;stroke-dasharray:none;stroke-dashoffset:29.05511856;stroke-opacity:1" />
      <circle
         transform="matrix(0,1,-1,0,0,0)"
         r="8.8582678"
         cy="-783.0708"
         cx="761.81104"
         id="circle4189-7"
         style="opacity:1;fill:none;fill-opacity:1;fill-rule:nonzero;stroke:#000000;stroke-width:0.35433072;stroke-linecap:butt;stroke-linejoin:round;stroke-miterlimit:4;stroke-dasharray:none;stroke-dashoffset:29.05511856;stroke-opacity:1" />
      <circle
         transform="matrix(0,1,-1,0,0,0)"
         style="opacity:1;fill:none;fill-opacity:1;fill-rule:nonzero;stroke:#000000;stroke-width:0.35433072;stroke-linecap:butt;stroke-linejoin:round;stroke-miterlimit:4;stroke-dasharray:none;stroke-dashoffset:29.05511856;stroke-opacity:1"
         id="circle4201-9"
         cx="47.834644"
         cy="-783.0708"
         r="8.8582678" />
      <path
         style="opacity:1;fill:none;fill-opacity:1;fill-rule:nonzero;stroke:#000000;stroke-width:0.35433072;stroke-linecap:butt;stroke-linejoin:round;stroke-miterlimit:4;stroke-dasharray:none;stroke-dashoffset:29.05511856;stroke-opacity:1"
         d="m 529.72401,740.55125 a 3.5433071,3.5433071 0 0 0 -3.54297,3.54492 3.5433071,3.5433071 0 0 0 1.77148,3.06446 l 0,8.04492 a 3.5433071,3.5433071 0 0 0 -1.77148,3.0625 3.5433071,3.5433071 0 0 0 3.54297,3.54297 3.5433071,3.5433071 0 0 0 3.0664,-1.77149 l 15.13086,0 a 3.5433071,3.5433071 0 0 0 3.0625,1.77149 3.5433071,3.5433071 0 0 0 3.54492,-3.54297 3.5433071,3.5433071 0 0 0 -1.77148,-3.06445 l 0,-8.04493 a 3.5433071,3.5433071 0 0 0 1.77148,-3.0625 3.5433071,3.5433071 0 0 0 -3.54492,-3.54492 3.5433071,3.5433071 0 0 0 -3.06445,1.77149 l -15.13086,0 a 3.5433071,3.5433071 0 0 0 -3.06445,-1.77149 z"
         id="path4353"
         inkscape:connector-curvature="0" />
      <rect
         style="opacity:1;fill:none;fill-opacity:1;fill-rule:nonzero;stroke:#000000;stroke-width:0.35433072;stroke-linecap:butt;stroke-linejoin:round;stroke-miterlimit:4;stroke-dasharray:none;stroke-dashoffset:29.05511856;stroke-opacity:1"
         id="rect4355"
         width="21.259842"
         height="7.0866141"
         x="490.74805"
         y="-577.55902"
         ry="3.5433071"
         rx="3.5433071"
         transform="matrix(0,1,-1,0,0,0)" />
      <circle
         style="opacity:1;fill:none;fill-opacity:1;fill-rule:nonzero;stroke:#000000;stroke-width:0.35433072;stroke-linecap:butt;stroke-linejoin:round;stroke-miterlimit:4;stroke-dasharray:none;stroke-dashoffset:29.05511856;stroke-opacity:1"
         id="circle4357"
         cx="758.2677"
         cy="-63.779465"
         r="8.8582678"
         transform="matrix(0,1,-1,0,0,0)" />
      <circle
         r="8.8582678"
         style="opacity:1;fill:none;fill-opacity:1;fill-rule:nonzero;stroke:#000000;stroke-width:0.35433066;stroke-linecap:butt;stroke-linejoin:round;stroke-miterlimit:4;stroke-dasharray:none;stroke-dashoffset:29.05511856;stroke-opacity:1"
         id="circle4361"
         cx="47.834644"
         cy="-63.779465"
         transform="matrix(0,1,-1,0,0,0)" />
      <circle
         r="35.433071"
         transform="matrix(0,1,-1,0,0,0)"
         cy="-230.3149"
         cx="267.51968"
         id="circle4363"
         style="opacity:1;fill:none;fill-opacity:1;fill-rule:nonzero;stroke:#000000;stroke-width:0.35433066;stroke-linecap:butt;stroke-linejoin:round;stroke-miterlimit:4;stroke-dasharray:none;stroke-dashoffset:29.05511856;stroke-opacity:1" />
      <rect
         transform="matrix(0,1,-1,0,0,0)"
         rx="3.5433071"
         ry="3.5433071"
         y="-196.65349"
         x="568.70081"
         height="7.0866141"
         width="21.259842"
         id="rect4365"
         style="opacity:1;fill:none;fill-opacity:1;fill-rule:nonzero;stroke:#000000;stroke-width:0.35433072;stroke-linecap:butt;stroke-linejoin:round;stroke-miterlimit:4;stroke-dasharray:none;stroke-dashoffset:29.05511856;stroke-opacity:1" />
      <rect
         ry="3.5433099"
         rx="3.5433099"
         y="480.1181"
         x="129.33064"
         height="35.433071"
         width="19.48819"
         id="rect4367"
         style="opacity:1;fill:none;fill-opacity:1;fill-rule:nonzero;stroke:#000000;stroke-width:0.35433072;stroke-linecap:butt;stroke-linejoin:round;stroke-miterlimit:4;stroke-dasharray:none;stroke-dashoffset:29.05511856;stroke-opacity:1" />
      <path
         sodipodi:nodetypes="ccccc"
         inkscape:connector-curvature="0"
         id="rect4369"
         d="m 137.30309,405.70866 15.94488,0 c 8.85827,17.71654 8.85827,31.88977 0,49.6063 l -15.94488,0 c -17.71654,-17.71653 -17.71654,-31.88976 0,-49.6063 z"
         style="opacity:1;fill:none;fill-opacity:1;fill-rule:nonzero;stroke:#000000;stroke-width:0.35433072;stroke-linecap:butt;stroke-linejoin:round;stroke-miterlimit:4;stroke-dasharray:none;stroke-dashoffset:29.05511856;stroke-opacity:1" />
      <path
         inkscape:connector-curvature="0"
         id="circle4374"
         d="m 256.89023,618.30604 a 35.433071,35.433071 0 0 0 -35.12305,31.00391 l -0.31055,0 0,4.42968 0,4.42969 0.32227,0 a 35.433071,35.433071 0 0 0 35.11133,31.00391 35.433071,35.433071 0 0 0 35.12109,-31.00391 l 7.39844,0 0,-8.85937 -7.41016,0 a 35.433071,35.433071 0 0 0 -35.10937,-31.00391 z"
         style="opacity:1;fill:none;fill-opacity:1;fill-rule:nonzero;stroke:#000000;stroke-width:0.35433066;stroke-linecap:butt;stroke-linejoin:round;stroke-miterlimit:4;stroke-dasharray:none;stroke-dashoffset:29.05511856;stroke-opacity:1" />
      <g
         transform="translate(138.76575,-189.11711)"
         id="g4389">
        <circle
           style="opacity:1;fill:none;fill-opacity:1;fill-rule:nonzero;stroke:#000000;stroke-width:0.35433072;stroke-linecap:butt;stroke-linejoin:round;stroke-miterlimit:4;stroke-dasharray:none;stroke-dashoffset:29.05511856;stroke-opacity:1"
           id="path4379"
           cx="118.12394"
           cy="935.86908"
           r="23.917324" />
        <g
           id="g4385"
           transform="translate(8.9738655,0)">
          <circle
             r="5.3149605"
             transform="matrix(0,1,-1,0,0,0)"
             cy="-75.48867"
             cx="935.86908"
             id="circle4381"
             style="opacity:1;fill:none;fill-opacity:1;fill-rule:nonzero;stroke:#000000;stroke-width:0.35433072;stroke-linecap:butt;stroke-linejoin:round;stroke-miterlimit:4;stroke-dasharray:none;stroke-dashoffset:29.05511856;stroke-opacity:1" />
          <circle
             style="opacity:1;fill:none;fill-opacity:1;fill-rule:nonzero;stroke:#000000;stroke-width:0.35433072;stroke-linecap:butt;stroke-linejoin:round;stroke-miterlimit:4;stroke-dasharray:none;stroke-dashoffset:29.05511856;stroke-opacity:1"
             id="circle4383"
             cx="935.86908"
             cy="-142.81148"
             transform="matrix(0,1,-1,0,0,0)"
             r="5.3149605" />
        </g>
      </g>
      <circle
         r="53.149605"
         style="opacity:1;fill:none;fill-opacity:1;fill-rule:nonzero;stroke:#000000;stroke-width:0.35433066;stroke-linecap:butt;stroke-linejoin:round;stroke-miterlimit:4;stroke-dasharray:none;stroke-dashoffset:29.05511856;stroke-opacity:1"
         id="circle4416"
         cx="267.51968"
         cy="-230.3149"
         transform="matrix(0,1,-1,0,0,0)" />
    </g>
  </g>
  <g
     inkscape:groupmode="layer"
     id="layer5"
     inkscape:label="right">
    <g
       id="g4545">
      <path
         id="rect4169-2"
         transform="translate(-6.1035156e-5,0)"
         d="M 17.716797 17.716797 L 17.716797 786.61328 L 407.48047 786.61328 L 407.48047 783.07031 C 407.48047 781.10732 409.06045 779.52734 411.02344 779.52734 L 425.19727 779.52734 C 427.16026 779.52734 428.74023 781.10732 428.74023 783.07031 L 428.74023 786.61328 L 825.58984 786.61328 L 825.58984 17.716797 L 17.716797 17.716797 z "
         style="opacity:1;fill:none;fill-opacity:1;fill-rule:nonzero;stroke:#000000;stroke-width:0.35433072;stroke-linecap:butt;stroke-linejoin:round;stroke-miterlimit:4;stroke-dasharray:none;stroke-dashoffset:29.05511856;stroke-opacity:1" />
      <rect
         transform="matrix(0,1,1,0,0,0)"
         rx="3.5433071"
         ry="3.5433071"
         y="648.42511"
         x="384.44882"
         height="7.0866141"
         width="21.259842"
         id="rect4177-7-2"
         style="opacity:1;fill:none;fill-opacity:1;fill-rule:nonzero;stroke:#000000;stroke-width:0.35433072;stroke-linecap:butt;stroke-linejoin:round;stroke-miterlimit:4;stroke-dasharray:none;stroke-dashoffset:29.05511856;stroke-opacity:1" />
      <circle
         transform="matrix(0,1,1,0,0,0)"
         r="8.8582678"
         cy="60.236168"
         cx="752.95276"
         id="circle4189-7-6"
         style="opacity:1;fill:none;fill-opacity:1;fill-rule:nonzero;stroke:#000000;stroke-width:0.35433072;stroke-linecap:butt;stroke-linejoin:round;stroke-miterlimit:4;stroke-dasharray:none;stroke-dashoffset:29.05511856;stroke-opacity:1" />
      <path
         style="opacity:1;fill:none;fill-opacity:1;fill-rule:nonzero;stroke:#000000;stroke-width:0.35433072;stroke-linecap:butt;stroke-linejoin:round;stroke-miterlimit:4;stroke-dasharray:none;stroke-dashoffset:29.05511856;stroke-opacity:1"
         d="m 54.921127,81.4964 a 3.5433071,3.5433071 0 0 1 -3.54492,3.54297 3.5433071,3.5433071 0 0 1 -3.06446,-1.77148 l -8.04492,0 a 3.5433071,3.5433071 0 0 1 -3.0625,1.77148 3.5433071,3.5433071 0 0 1 -3.54297,-3.54297 3.5433071,3.5433071 0 0 1 1.77149,-3.0664 l 0,-15.13086 a 3.5433071,3.5433071 0 0 1 -1.77149,-3.0625 3.5433071,3.5433071 0 0 1 3.54297,-3.54492 3.5433071,3.5433071 0 0 1 3.06445,1.77148 l 8.04493,0 a 3.5433071,3.5433071 0 0 1 3.0625,-1.77148 3.5433071,3.5433071 0 0 1 3.54492,3.54492 3.5433071,3.5433071 0 0 1 -1.77149,3.06445 l 0,15.13086 a 3.5433071,3.5433071 0 0 1 1.77149,3.06445 z"
         id="path4353-5"
         inkscape:connector-curvature="0" />
      <circle
         style="opacity:1;fill:none;fill-opacity:1;fill-rule:nonzero;stroke:#000000;stroke-width:0.35433072;stroke-linecap:butt;stroke-linejoin:round;stroke-miterlimit:4;stroke-dasharray:none;stroke-dashoffset:29.05511856;stroke-opacity:1"
         id="circle4357-0"
         cx="747.63782"
         cy="779.52753"
         r="8.8582678"
         transform="matrix(0,1,1,0,0,0)" />
      <circle
         r="8.8582678"
         style="opacity:1;fill:none;fill-opacity:1;fill-rule:nonzero;stroke:#000000;stroke-width:0.35433066;stroke-linecap:butt;stroke-linejoin:round;stroke-miterlimit:4;stroke-dasharray:none;stroke-dashoffset:29.05511856;stroke-opacity:1"
         id="circle4361-8"
         cx="35.433071"
         cy="600.59052"
         transform="matrix(0,1,1,0,0,0)" />
      <path
         inkscape:connector-curvature="0"
         id="path4536"
         d="m 54.921127,233.8586 a 3.5433071,3.5433071 0 0 1 -3.54492,3.54297 3.5433071,3.5433071 0 0 1 -3.06446,-1.77148 l -8.04492,0 a 3.5433071,3.5433071 0 0 1 -3.0625,1.77148 3.5433071,3.5433071 0 0 1 -3.54297,-3.54297 3.5433071,3.5433071 0 0 1 1.77149,-3.0664 l 0,-15.13086 a 3.5433071,3.5433071 0 0 1 -1.77149,-3.0625 3.5433071,3.5433071 0 0 1 3.54297,-3.54492 3.5433071,3.5433071 0 0 1 3.06445,1.77148 l 8.04493,0 a 3.5433071,3.5433071 0 0 1 3.0625,-1.77148 3.5433071,3.5433071 0 0 1 3.54492,3.54492 3.5433071,3.5433071 0 0 1 -1.77149,3.06445 l 0,15.13086 a 3.5433071,3.5433071 0 0 1 1.77149,3.06445 z"
         style="opacity:1;fill:none;fill-opacity:1;fill-rule:nonzero;stroke:#000000;stroke-width:0.35433072;stroke-linecap:butt;stroke-linejoin:round;stroke-miterlimit:4;stroke-dasharray:none;stroke-dashoffset:29.05511856;stroke-opacity:1" />
      <circle
         transform="matrix(0,1,1,0,0,0)"
         cy="779.52753"
         cx="38.976379"
         id="circle4538"
         style="opacity:1;fill:none;fill-opacity:1;fill-rule:nonzero;stroke:#000000;stroke-width:0.35433066;stroke-linecap:butt;stroke-linejoin:round;stroke-miterlimit:4;stroke-dasharray:none;stroke-dashoffset:29.05511856;stroke-opacity:1"
         r="8.8582678" />
      <circle
         transform="matrix(0,1,1,0,0,0)"
         cy="600.59052"
         cx="340.15747"
         id="circle4540"
         style="opacity:1;fill:none;fill-opacity:1;fill-rule:nonzero;stroke:#000000;stroke-width:0.35433066;stroke-linecap:butt;stroke-linejoin:round;stroke-miterlimit:4;stroke-dasharray:none;stroke-dashoffset:29.05511856;stroke-opacity:1"
         r="8.8582678" />
      <path
         style="opacity:1;fill:none;fill-opacity:1;fill-rule:nonzero;stroke:#000000;stroke-width:0.35433072;stroke-linecap:butt;stroke-linejoin:round;stroke-miterlimit:4;stroke-dasharray:none;stroke-dashoffset:29.05511856;stroke-opacity:1"
         d="m 581.10196,752.95276 a 3.5433071,3.5433071 0 0 1 -3.54297,-3.54492 3.5433071,3.5433071 0 0 1 1.77148,-3.06446 l 0,-8.04492 a 3.5433071,3.5433071 0 0 1 -1.77148,-3.0625 3.5433071,3.5433071 0 0 1 3.54297,-3.54297 3.5433071,3.5433071 0 0 1 3.0664,1.77149 l 15.13086,0 a 3.5433071,3.5433071 0 0 1 3.0625,-1.77149 3.5433071,3.5433071 0 0 1 3.54492,3.54297 3.5433071,3.5433071 0 0 1 -1.77148,3.06445 l 0,8.04493 a 3.5433071,3.5433071 0 0 1 1.77148,3.0625 3.5433071,3.5433071 0 0 1 -3.54492,3.54492 3.5433071,3.5433071 0 0 1 -3.06445,-1.77149 l -15.13086,0 a 3.5433071,3.5433071 0 0 1 -3.06445,1.77149 z"
         id="path4542"
         inkscape:connector-curvature="0" />
    </g>
  </g>
</svg>
